<?xml version="1.0" encoding="utf-8"?>
<!-- Generator: Adobe Illustrator 16.0.0, SVG Export Plug-In . SVG Version: 6.00 Build 0)  -->
<!DOCTYPE svg PUBLIC "-//W3C//DTD SVG 1.1//EN" "http://www.w3.org/Graphics/SVG/1.1/DTD/svg11.dtd">
<svg version="1.1" id="Capa_1" xmlns="http://www.w3.org/2000/svg" xmlns:xlink="http://www.w3.org/1999/xlink" x="0px" y="0px"
	 width="494.313px" height="512px" viewBox="8.844 0 494.313 512" enable-background="new 8.844 0 494.313 512"
	 xml:space="preserve">
<path d="M495.642,466.351L373.786,339.614c31.331-37.245,48.498-84.107,48.498-132.894C422.284,92.737,329.548,0,215.564,0
	S8.844,92.737,8.844,206.72s92.736,206.72,206.72,206.72c42.791,0,83.568-12.906,118.433-37.407l122.782,127.698
	c5.132,5.33,12.035,8.27,19.432,8.27c7.002,0,13.644-2.67,18.686-7.523C505.61,494.168,505.952,477.073,495.642,466.351z
	 M215.564,53.927c84.252,0,152.793,68.541,152.793,152.793s-68.541,152.793-152.793,152.793S62.771,290.972,62.771,206.72
	S131.312,53.927,215.564,53.927z"/>
</svg>
