<?xml version="1.0" encoding="utf-8"?>
<!-- Generator: Adobe Illustrator 16.0.0, SVG Export Plug-In . SVG Version: 6.00 Build 0)  -->
<!DOCTYPE svg PUBLIC "-//W3C//DTD SVG 1.1//EN" "http://www.w3.org/Graphics/SVG/1.1/DTD/svg11.dtd">
<svg version="1.1" id="Capa_1" xmlns="http://www.w3.org/2000/svg" xmlns:xlink="http://www.w3.org/1999/xlink" x="0px" y="0px"
	 width="471.82px" height="248.02px" viewBox="0.004 111.905 471.82 248.02" enable-background="new 0.004 111.905 471.82 248.02"
	 xml:space="preserve">
<path d="M444.605,187.344v-34.61c0-22.51-18.311-40.83-40.83-40.83H40.834c-22.51,0-40.83,18.32-40.83,40.83v166.35
	c0,22.53,18.32,40.84,40.83,40.84h362.94c22.52,0,40.83-18.31,40.83-40.84v-36.479h27.22v-95.26H444.605z M417.384,319.084
	c0,7.51-6.1,13.62-13.609,13.62H40.824c-7.5,0-13.6-6.11-13.6-13.62v-166.35c0-7.51,6.09-13.61,13.6-13.61h362.95
	c7.5,0,13.609,6.1,13.609,13.61V319.084z"/>
<polygon points="43.329,317.862 43.329,153.966 103.049,153.966 103.049,317.858 43.329,317.858 "/>
<polygon points="117.759,317.862 117.759,153.966 177.474,153.966 177.474,317.858 117.759,317.858 "/>
<polygon points="192.189,317.862 192.189,153.966 251.908,153.966 251.908,317.858 192.189,317.858 "/>
<polygon points="266.45,317.862 266.451,153.966 326.17,153.966 326.169,317.858 266.45,317.858 "/>
<polygon points="340.884,317.862 340.885,153.966 400.606,153.966 400.606,317.858 340.884,317.858 "/>
</svg>
