<?xml version="1.0" encoding="utf-8"?>
<!-- Generator: Adobe Illustrator 16.0.0, SVG Export Plug-In . SVG Version: 6.00 Build 0)  -->
<!DOCTYPE svg PUBLIC "-//W3C//DTD SVG 1.1//EN" "http://www.w3.org/Graphics/SVG/1.1/DTD/svg11.dtd">
<svg version="1.1" id="Capa_1" xmlns="http://www.w3.org/2000/svg" xmlns:xlink="http://www.w3.org/1999/xlink" x="0px" y="0px"
	 width="471.82px" height="248.021px" viewBox="0.004 111.904 471.82 248.021"
	 enable-background="new 0.004 111.904 471.82 248.021" xml:space="preserve">
<g>
	<path d="M444.605,187.344v-34.61c0-22.51-18.311-40.83-40.83-40.83H40.834c-22.51,0-40.83,18.32-40.83,40.83v166.352
		c0,22.528,18.32,40.84,40.83,40.84h362.94c22.521,0,40.83-18.312,40.83-40.84v-36.479h27.22v-95.26L444.605,187.344
		L444.605,187.344z M417.385,319.084c0,7.51-6.102,13.62-13.609,13.62H40.824c-7.5,0-13.6-6.11-13.6-13.62V152.734
		c0-7.51,6.09-13.608,13.6-13.608h362.95c7.5,0,13.609,6.1,13.609,13.608L417.385,319.084L417.385,319.084z"/>
	<polygon points="43.329,317.862 43.329,153.966 103.049,153.966 103.049,317.858 43.329,317.858 	"/>
</g>
</svg>
