<?xml version="1.0" encoding="utf-8"?>
<!-- Generator: Adobe Illustrator 16.0.0, SVG Export Plug-In . SVG Version: 6.00 Build 0)  -->
<!DOCTYPE svg PUBLIC "-//W3C//DTD SVG 1.1//EN" "http://www.w3.org/Graphics/SVG/1.1/DTD/svg11.dtd">
<svg version="1.1" id="Capa_1" xmlns="http://www.w3.org/2000/svg" xmlns:xlink="http://www.w3.org/1999/xlink" x="0px" y="0px"
	 width="471.82px" height="248.02px" viewBox="0 0 471.82 248.02" enable-background="new 0 0 471.82 248.02" xml:space="preserve">
<g>
	<path d="M444.601,75.44v-34.61c0-22.51-18.311-40.83-40.83-40.83H40.83C18.32-0.001,0,18.32,0,40.829V207.18
		c0,22.529,18.32,40.84,40.83,40.84h362.94c22.521,0,40.83-18.311,40.83-40.84V170.7h27.22v-95.26L444.601,75.44L444.601,75.44z
		 M417.381,207.18c0,7.51-6.101,13.62-13.609,13.62H40.82c-7.5,0-13.6-6.11-13.6-13.62V40.829c0-7.51,6.09-13.609,13.6-13.609
		h362.95c7.5,0,13.609,6.1,13.609,13.609L417.381,207.18L417.381,207.18z"/>
	<polygon points="43.325,205.957 43.325,42.062 103.045,42.062 103.045,205.953 43.325,205.953 	"/>
	<polygon points="117.755,205.957 117.755,42.062 177.47,42.062 177.47,205.953 117.755,205.953 	"/>
	<polygon points="192.185,205.957 192.185,42.062 251.904,42.062 251.904,205.953 192.185,205.953 	"/>
</g>
</svg>
