<?xml version="1.0" encoding="utf-8"?>
<!-- Generator: Adobe Illustrator 16.0.0, SVG Export Plug-In . SVG Version: 6.00 Build 0)  -->
<!DOCTYPE svg PUBLIC "-//W3C//DTD SVG 1.1//EN" "http://www.w3.org/Graphics/SVG/1.1/DTD/svg11.dtd">
<svg version="1.1" id="Слой_1" xmlns="http://www.w3.org/2000/svg" xmlns:xlink="http://www.w3.org/1999/xlink" x="0px" y="0px"
	 width="464px" height="464px" viewBox="0 0 464 464" enable-background="new 0 0 464 464" xml:space="preserve">
<g>
	<path d="M166.32,208.231l33.031-77.078l-14.703-6.305l-14.969,34.922L150.113,88H128V40h-16v48H96V56H80v32H64V40H48v48H32V72H16
		v16H0v16h137.887L166.32,208.231z"/>
	<path d="M224,166.528V192c0,13.23,10.77,24,24,24h8v-16h-8c-4.414,0-8-3.594-8-8v-72h-8c-13.23,0-24,10.77-24,24
		C208,154.414,214.711,163.215,224,166.528z"/>
	<path d="M280,253.176v10.023C283.808,282.207,300.625,296,320,296s36.191-13.793,40-32.793v-10.031
		C348.215,260.016,334.574,264,320,264S291.785,260.016,280,253.176z"/>
	<path d="M336,216c4.414,0,8-3.594,8-8s-3.586-8-8-8h-32c-4.414,0-8,3.594-8,8s3.586,8,8,8H336z"/>
	<path d="M400,120v48h8c13.23,0,24-10.77,24-24s-10.77-24-24-24H400z"/>
	<path d="M240,104V88h16v15.609c20.633-1.84,39.801-10.73,54.625-25.555L320,68.688l9.375,9.359
		c14.824,14.832,33.992,23.723,54.625,25.555V88h16v16h8c2.734,0,5.414,0.281,8,0.809V96c0-52.938-43.063-96-96-96s-96,43.063-96,96
		v8.809c2.586-0.527,5.266-0.809,8-0.809H240z"/>
	<path d="M384,184v-64.375c-24.016-1.809-46.426-11.656-64-28.359c-17.574,16.703-39.984,26.551-64,28.359V184
		c0,5.535,0.777,10.871,2.105,16h23.367c3.313-9.289,12.113-16,22.527-16h32c13.23,0,24,10.77,24,24s-10.77,24-24,24h-32
		c-10.414,0-19.215-6.711-22.527-16h-16.816c11.086,19.098,31.711,32,55.344,32C355.289,248,384,219.289,384,184z M280,160
		c-4.414,0-8-3.586-8-8s3.586-8,8-8s8,3.586,8,8S284.414,160,280,160z M352,152c0-4.414,3.586-8,8-8s8,3.586,8,8s-3.586,8-8,8
		S352,156.414,352,152z"/>
	<path d="M120,300.688l46.465-46.465c-13.93-7.797-29.695-12.621-46.465-13.816V300.688z"/>
	<path d="M120,395.313v49.375l103.457-103.457c-1.313-13.68-5.176-26.59-10.977-38.391L120,395.313z"/>
	<path d="M435.769,293.215l-62.387-19.191C365.222,296.664,344.07,312,320,312c-24.266,0-45.52-15.594-53.434-37.961l-44.125,13.578
		C233.535,306.559,240,328.512,240,352c0,2.703-0.238,5.344-0.406,8H464v-28.543C464,313.785,452.656,298.414,435.769,293.215z"/>
	<path d="M223.336,363.977l-99.359,99.359C176.183,457.762,217.761,416.184,223.336,363.977z"/>
	<path d="M120,372.688l84.168-84.168c-6.664-9.641-14.832-18.129-24.113-25.262L120,323.313V372.688z"/>
	<path d="M0.406,344H104V240.406C48.633,244.344,4.344,288.633,0.406,344z M88,328H32v-16h56V328z M56,280h32v16H56V280z"/>
	<path d="M104,463.594V360H0.406C4.344,415.367,48.633,459.656,104,463.594z M88,424H56v-16h32V424z M88,376v16H32v-16H88z"/>
</g>
</svg>
