<?xml version="1.0" encoding="utf-8"?>
<!-- Generator: Adobe Illustrator 16.0.0, SVG Export Plug-In . SVG Version: 6.00 Build 0)  -->
<!DOCTYPE svg PUBLIC "-//W3C//DTD SVG 1.1//EN" "http://www.w3.org/Graphics/SVG/1.1/DTD/svg11.dtd">
<svg version="1.1" id="Capa_1" xmlns="http://www.w3.org/2000/svg" xmlns:xlink="http://www.w3.org/1999/xlink" x="0px" y="0px"
	 width="322.266px" height="500px" viewBox="0 0 322.266 500" enable-background="new 0 0 322.266 500" xml:space="preserve">
<g>
	<g>
		<g>
			<path fill="#7BD84D" d="M161.132,0C88.439,0,29.296,59.142,29.296,131.836c0,36.551,14.955,69.671,39.063,93.574v9.941h185.547
				v-9.941c24.107-23.903,39.063-57.023,39.063-93.574C292.969,59.142,233.826,0,161.132,0z"/>
		</g>
	</g>
	<g>
		<g>
			<path fill="#7BD84D" d="M278.32,264.648H43.945C19.714,264.648,0,284.361,0,308.593s19.714,43.945,43.945,43.945H278.32
				c24.23,0,43.945-19.714,43.945-43.945S302.551,264.648,278.32,264.648z"/>
		</g>
	</g>
	<g>
		<g>
			<path fill="#7BD84D" d="M261.631,381.836h-29.855c1.219,5.307,1.865,10.781,1.865,16.359c0,19.367-7.543,37.575-21.236,51.271
				c-13.695,13.695-31.904,21.237-51.272,21.237c-19.368,0-37.576-7.542-51.271-21.237c-13.694-13.695-21.236-31.901-21.236-51.271
				c0-5.578,0.646-11.055,1.863-16.359H60.633c-0.861,5.359-1.307,10.825-1.307,16.359c0,27.192,10.59,52.758,29.818,71.985
				C108.375,489.41,133.939,500,161.132,500c27.194,0,52.758-10.59,71.987-29.818c19.229-19.228,29.816-44.793,29.816-71.986
				C262.938,392.661,262.49,387.195,261.631,381.836z"/>
		</g>
	</g>
</g>
</svg>
