<?xml version="1.0" encoding="utf-8"?>
<!-- Generator: Adobe Illustrator 16.0.0, SVG Export Plug-In . SVG Version: 6.00 Build 0)  -->
<!DOCTYPE svg PUBLIC "-//W3C//DTD SVG 1.1//EN" "http://www.w3.org/Graphics/SVG/1.1/DTD/svg11.dtd">
<svg version="1.1" id="Capa_1" xmlns="http://www.w3.org/2000/svg" xmlns:xlink="http://www.w3.org/1999/xlink" x="0px" y="0px"
	 width="33px" height="33px" viewBox="239.5 239.5 33 33" enable-background="new 239.5 239.5 33 33" xml:space="preserve">
<g>
	<linearGradient id="SVGID_1_" gradientUnits="userSpaceOnUse" x1="256.0002" y1="272.4036" x2="256.0002" y2="239.6616">
		<stop  offset="0" style="stop-color:#E09B3D"/>
		<stop  offset="0.3" style="stop-color:#C74C4D"/>
		<stop  offset="0.6" style="stop-color:#C21975"/>
		<stop  offset="1" style="stop-color:#7024C4"/>
	</linearGradient>
	<path fill="url(#SVGID_1_)" d="M256,249.297c-3.732,0-6.768,3.036-6.768,6.768c0,3.731,3.036,6.768,6.768,6.768
		c3.731,0,6.768-3.036,6.768-6.768C262.767,252.333,259.731,249.297,256,249.297z M256,249.297c-3.732,0-6.768,3.036-6.768,6.768
		c0,3.731,3.036,6.768,6.768,6.768c3.731,0,6.768-3.036,6.768-6.768C262.767,252.333,259.731,249.297,256,249.297z M267.666,239.5
		h-23.332c-2.668,0-4.834,2.166-4.834,4.834v23.332c0,2.668,2.166,4.834,4.834,4.834h23.332c2.668,0,4.834-2.166,4.834-4.834
		v-23.332C272.5,241.666,270.334,239.5,267.666,239.5z M256,264.766c-4.795,0-8.701-3.906-8.701-8.701
		c0-4.795,3.906-8.701,8.701-8.701c4.795,0,8.701,3.906,8.701,8.701C264.701,260.86,260.795,264.766,256,264.766z M266.635,247.364
		c-1.063,0-1.934-0.87-1.934-1.934s0.87-1.934,1.934-1.934s1.934,0.87,1.934,1.934S267.698,247.364,266.635,247.364z M256,249.297
		c-3.732,0-6.768,3.036-6.768,6.768c0,3.731,3.036,6.768,6.768,6.768c3.731,0,6.768-3.036,6.768-6.768
		C262.767,252.333,259.731,249.297,256,249.297z M256,249.297c-3.732,0-6.768,3.036-6.768,6.768c0,3.731,3.036,6.768,6.768,6.768
		c3.731,0,6.768-3.036,6.768-6.768C262.767,252.333,259.731,249.297,256,249.297z M256,249.297c-3.732,0-6.768,3.036-6.768,6.768
		c0,3.731,3.036,6.768,6.768,6.768c3.731,0,6.768-3.036,6.768-6.768C262.767,252.333,259.731,249.297,256,249.297z"/>
</g>
</svg>
