<svg height="512" viewBox="0 0 512 512" width="512" xmlns="http://www.w3.org/2000/svg"><path d="m256 319.933a51.621 51.621 0 0 1 -33.645-12.32 52.115 52.115 0 0 1 -60.563-29.242 52.1 52.1 0 0 1 -42-52.6 52.106 52.106 0 0 1 -14.97-65.571 52.1 52.1 0 0 1 14.96-65.554 52.115 52.115 0 0 1 42.008-52.605 52.115 52.115 0 0 1 60.569-29.241 51.621 51.621 0 0 1 33.641-12.32 51.621 51.621 0 0 1 33.645 12.32 52.115 52.115 0 0 1 60.563 29.242 52.1 52.1 0 0 1 42.005 52.605 52.106 52.106 0 0 1 14.966 65.56 52.106 52.106 0 0 1 -14.961 65.556 52.113 52.113 0 0 1 -42.008 52.609 52.116 52.116 0 0 1 -60.564 29.239 51.614 51.614 0 0 1 -33.646 12.322zm-29.518-30.591 3.706 3.72a36.079 36.079 0 0 0 51.624 0l3.774-3.812 4.816 1.864a36.082 36.082 0 0 0 46.443-22.49l.034-.1 1.662-4.8 5.16-.551a36.08 36.08 0 0 0 32.255-40.331l-.641-5.227 4.4-2.686a36.079 36.079 0 0 0 11.507-50.37l-.167-.272-2.664-4.508 2.933-4.08a36.081 36.081 0 0 0 -11.609-50.212l-4.4-2.685.641-5.22a36.081 36.081 0 0 0 -32.205-40.335l-5.257-.512-1.643-4.928a36.08 36.08 0 0 0 -46.522-22.48l-4.811 1.745-3.706-3.719a36.078 36.078 0 0 0 -51.624 0l-3.688 3.774-4.827-1.8a36.082 36.082 0 0 0 -46.518 22.463l-.034.1-1.662 4.8-5.16.551a36.08 36.08 0 0 0 -32.255 40.331l.641 5.227-4.4 2.686a36.079 36.079 0 0 0 -11.507 50.37l2.812 4.355-2.819 4.356a36.082 36.082 0 0 0 11.514 50.361l4.4 2.686-.641 5.219a36.081 36.081 0 0 0 32.2 40.335l5.257.512 1.643 4.928a36.08 36.08 0 0 0 46.522 22.48z"/><path d="m256 48a112 112 0 1 0 112 112 112.127 112.127 0 0 0 -112-112zm7.3 162.125-7.3 3.039-7.33-3.045c-9.293-3.861-55.67-24.931-55.67-60.589 0-23.176 19.34-42.03 43.113-42.03a43.832 43.832 0 0 1 19.887 4.725 43.832 43.832 0 0 1 19.887-4.725c23.773 0 43.113 18.854 43.113 42.03 0 35.763-46.4 56.75-55.7 60.595z"/><path d="m464 32a8 8 0 0 1 -8-8v-16a8 8 0 0 1 16 0v16a8 8 0 0 1 -8 8z"/><path d="m464 96a8 8 0 0 1 -8-8v-16a8 8 0 0 1 16 0v16a8 8 0 0 1 -8 8z"/><path d="m440 56h-16a8 8 0 0 1 0-16h16a8 8 0 0 1 0 16z"/><path d="m504 56h-16a8 8 0 0 1 0-16h16a8 8 0 0 1 0 16z"/><path d="m48 288a8 8 0 0 1 -8-8v-16a8 8 0 0 1 16 0v16a8 8 0 0 1 -8 8z"/><path d="m48 352a8 8 0 0 1 -8-8v-16a8 8 0 0 1 16 0v16a8 8 0 0 1 -8 8z"/><path d="m24 312h-16a8 8 0 0 1 0-16h16a8 8 0 0 1 0 16z"/><path d="m88 312h-16a8 8 0 0 1 0-16h16a8 8 0 0 1 0 16z"/><path d="m320 327.56v115.966a9.361 9.361 0 0 1 -4.312 8.042 9 9 0 0 1 -9.513-.085l-45.88-29.2a8 8 0 0 0 -8.59 0l-45.873 29.193a9.008 9.008 0 0 1 -10.91-.952 9.289 9.289 0 0 1 -2.922-6.904v-116.06a8 8 0 0 0 -3.924-6.884l-16-9.473a8 8 0 0 0 -12.076 6.885v183.831a9.279 9.279 0 0 0 2.921 6.9 9.011 9.011 0 0 0 10.911.951l77.873-49.555a8 8 0 0 1 8.59 0l77.88 49.56a9 9 0 0 0 9.513.085 9.361 9.361 0 0 0 4.312-8.041v-183.728a8 8 0 0 0 -12.075-6.885l-16 9.47a8 8 0 0 0 -3.925 6.884z"/><circle cx="232" cy="144" r="16"/><path d="m295.975 320.248a8.035 8.035 0 0 0 -4.485 1.369c-10.328 6.949-20.481 14.316-35.49 14.316s-25.161-7.369-35.487-14.316a8.035 8.035 0 0 0 -4.485-1.369 8.025 8.025 0 0 0 -8.028 8.025v88.287a8 8 0 0 0 12.295 6.75l31.41-19.989a8 8 0 0 1 8.59 0l31.41 19.989a8 8 0 0 0 12.3-6.75v-88.287a8.025 8.025 0 0 0 -8.03-8.025zm-55.975 63.752a16 16 0 1 1 16-16 16 16 0 0 1 -16 16z"/></svg>