<?xml version="1.0" encoding="utf-8"?>
<!-- Generator: Adobe Illustrator 16.0.0, SVG Export Plug-In . SVG Version: 6.00 Build 0)  -->
<!DOCTYPE svg PUBLIC "-//W3C//DTD SVG 1.1//EN" "http://www.w3.org/Graphics/SVG/1.1/DTD/svg11.dtd">
<svg version="1.1" id="Capa_1" xmlns="http://www.w3.org/2000/svg" xmlns:xlink="http://www.w3.org/1999/xlink" x="0px" y="0px"
	 width="300.002px" height="250.605px" viewBox="0 24.698 300.002 250.605" enable-background="new 0 24.698 300.002 250.605"
	 xml:space="preserve">
<g>
	<path fill="#010002" d="M290.805,133.65h-36.104l-78.846-78.863c0.121-1.124,0.346-2.247,0.346-3.388
		c0-14.742-11.977-26.702-26.736-26.702c-14.743,0-26.703,11.96-26.703,26.702c0,1.521,0.208,2.938,0.415,4.373l-77.86,77.878H9.212
		c-5.081,0-9.212,4.113-9.212,9.212v12.702c0,5.082,4.131,9.213,9.212,9.213h7.069l19.547,102.661c0,4.355,3.525,7.864,7.864,7.864
		h212.599c4.355,0,7.882-3.525,7.882-7.864l19.547-102.661h7.052c5.098,0,9.229-4.113,9.229-9.213v-12.685
		C300.052,137.746,295.922,133.65,290.805,133.65z M137.919,75.372c3.526,1.694,7.38,2.713,11.528,2.713
		c4.459,0,8.572-1.192,12.254-3.111l58.658,58.676H79.658L137.919,75.372z M77.532,258.97H72.64c-5.288,0-10.3-3.076-11.147-6.931
		L47.303,188.61c-1.175-5.15,2.973-9.419,9.264-9.419h5.79c6.291,0,12.099,4.269,12.979,9.419l10.612,63.429
		C86.623,255.877,82.838,258.97,77.532,258.97z M128.344,258.97h-4.892c-5.288,0-9.92-3.076-10.335-6.931l-6.688-63.429
		c-0.536-5.15,4.113-9.419,10.387-9.419h5.79c6.309,0,11.632,4.269,11.856,9.419l3.11,63.429
		C137.815,255.877,133.65,258.97,128.344,258.97z M189.267,252.039c-0.276,3.854-4.787,6.931-10.11,6.931h-4.892
		c-5.288,0-9.575-3.076-9.506-6.931l0.813-63.429c0.069-5.15,5.237-9.419,11.545-9.419h5.772c6.326,0,11.113,4.269,10.75,9.419
		L189.267,252.039z M240.909,252.039c-0.743,3.854-5.634,6.931-10.94,6.931h-4.891c-5.289,0-9.194-3.076-8.693-6.931l8.348-63.429
		c0.674-5.15,6.36-9.419,12.651-9.419h5.772c6.325,0,10.611,4.269,9.661,9.419L240.909,252.039z"/>
</g>
</svg>
