<?xml version="1.0" encoding="utf-8"?>
<!-- Generator: Adobe Illustrator 16.0.0, SVG Export Plug-In . SVG Version: 6.00 Build 0)  -->
<!DOCTYPE svg PUBLIC "-//W3C//DTD SVG 1.1//EN" "http://www.w3.org/Graphics/SVG/1.1/DTD/svg11.dtd">
<svg version="1.1" id="Слой_1" xmlns="http://www.w3.org/2000/svg" xmlns:xlink="http://www.w3.org/1999/xlink" x="0px" y="0px"
	 width="512px" height="435px" viewBox="0 0 512 435" enable-background="new 0 0 512 435" xml:space="preserve">
<g>
	<path d="M120,195C53.726,195,0,248.727,0,315s53.727,120,120,120s120-53.727,120-120S186.273,195,120,195z M120,360
		c-24.813,0-45-20.188-45-45s20.188-45,45-45s45,20.188,45,45S144.812,360,120,360z"/>
	<path d="M120,300c-8.27,0-15,6.73-15,15s6.73,15,15,15s15-6.73,15-15S128.269,300,120,300z"/>
	<path d="M392,90c0-8.27,6.73-15,15-15V45c-24.813,0-45,20.188-45,45v45h30V90z"/>
	<path d="M318.109,285c20.777-35.84,59.566-60,103.891-60c21.844,0,42.34,5.867,60,16.109V225c0-33.086-26.914-60-60-60H219.383
		c-28.5-18.945-62.672-30-99.383-30c-41.738,0-82.422,14.613-114.551,41.148l19.102,23.133C51.32,177.176,85.219,165,120,165
		c72.438,0,133.047,51.617,146.984,120H318.109z"/>
	<path d="M305.797,315H270v45h32.938c-0.617-4.914-0.938-9.922-0.938-15C302,334.645,303.32,324.594,305.797,315z"/>
	<path d="M422,255c-49.707,0-90,40.293-90,90s40.293,90,90,90s90-40.293,90-90S471.707,255,422,255z M422,360
		c-8.285,0-15-6.715-15-15s6.715-15,15-15s15,6.715,15,15S430.285,360,422,360z"/>
	<path d="M75,109.895c14.703-3.23,29.789-4.895,45-4.895c38.285,0,75.445,10.344,108.066,30H286.5L258.937,30H285V0H45v30h30
		V109.895z"/>
</g>
</svg>
