<?xml version="1.0" encoding="utf-8"?>
<!-- Generator: Adobe Illustrator 16.0.0, SVG Export Plug-In . SVG Version: 6.00 Build 0)  -->
<!DOCTYPE svg PUBLIC "-//W3C//DTD SVG 1.1//EN" "http://www.w3.org/Graphics/SVG/1.1/DTD/svg11.dtd">
<svg version="1.1" id="Слой_1" xmlns="http://www.w3.org/2000/svg" xmlns:xlink="http://www.w3.org/1999/xlink" x="0px" y="0px"
	 width="1366px" height="101.156px" viewBox="0.037 -0.352 1366 101.156" enable-background="new 0.037 -0.352 1366 101.156"
	 xml:space="preserve">
<path fill-rule="evenodd" clip-rule="evenodd" fill="#FFFFFF" d="M565.762,93.399c45.956,2.961,101.143-32.855,203.815-14.986
	c58.127,10.113,81.347,29.098,155.858,19.982c61.205-7.49,105.692-58.49,185.38-69.209c59.492-8.003,106.39,9.272,151.416,5.412
	c55.629-4.767,103.806-34.902,103.806-34.902L0.061-0.352c0,0-0.127,4.331,0.212,5.829c6.875,30.309,80.112,57.592,110.9,61.946
	c98.974,13.996,182.237-44.817,258.766-46.958C453.284,18.133,443.471,85.521,565.762,93.399z"/>
</svg>
